<mxfile host="65bd71144e">
    <diagram id="uMR2zKd2-PwcfRtWuuAx" name="page">
        <mxGraphModel dx="608" dy="590" grid="1" gridSize="10" guides="1" tooltips="1" connect="1" arrows="1" fold="1" page="1" pageScale="1" pageWidth="200" pageHeight="200" math="0" shadow="0">
            <root>
                <mxCell id="0"/>
                <mxCell id="1" parent="0"/>
                <mxCell id="hDm2CasVEIPQHTp5JE4Y-1" value="" style="group" vertex="1" connectable="0" parent="1">
                    <mxGeometry x="500" y="310" width="480" height="170" as="geometry"/>
                </mxCell>
                <mxCell id="hDm2CasVEIPQHTp5JE4Y-2" value="" style="rounded=1;whiteSpace=wrap;html=1;fillColor=default;arcSize=2;strokeColor=#1A1A1A;strokeWidth=3;" vertex="1" parent="hDm2CasVEIPQHTp5JE4Y-1">
                    <mxGeometry width="480" height="170" as="geometry"/>
                </mxCell>
                <mxCell id="hDm2CasVEIPQHTp5JE4Y-3" value="the bridge application" style="text;html=1;strokeColor=none;fillColor=none;align=center;verticalAlign=middle;whiteSpace=wrap;rounded=0;fontSize=20;fontStyle=1" vertex="1" parent="hDm2CasVEIPQHTp5JE4Y-1">
                    <mxGeometry x="135" y="10.625" width="230" height="31.875" as="geometry"/>
                </mxCell>
                <mxCell id="hDm2CasVEIPQHTp5JE4Y-4" value="&lt;font style=&quot;font-size: 15px&quot;&gt;&lt;b style=&quot;font-size: 12px&quot;&gt;ping&lt;br&gt;&lt;/b&gt;&lt;/font&gt;" style="rounded=1;whiteSpace=wrap;html=1;fillColor=none;arcSize=2;strokeColor=default;strokeWidth=3;" vertex="1" parent="hDm2CasVEIPQHTp5JE4Y-1">
                    <mxGeometry x="15" y="120" width="70" height="30" as="geometry"/>
                </mxCell>
                <mxCell id="hDm2CasVEIPQHTp5JE4Y-5" value="" style="group" vertex="1" connectable="0" parent="1">
                    <mxGeometry x="1020" y="310" width="480" height="170" as="geometry"/>
                </mxCell>
                <mxCell id="hDm2CasVEIPQHTp5JE4Y-6" value="" style="rounded=1;whiteSpace=wrap;html=1;fillColor=default;arcSize=2;strokeColor=#1A1A1A;strokeWidth=3;" vertex="1" parent="hDm2CasVEIPQHTp5JE4Y-5">
                    <mxGeometry width="480" height="170" as="geometry"/>
                </mxCell>
                <mxCell id="hDm2CasVEIPQHTp5JE4Y-7" value="external process" style="text;html=1;strokeColor=none;fillColor=none;align=center;verticalAlign=middle;whiteSpace=wrap;rounded=0;fontSize=20;fontStyle=1" vertex="1" parent="hDm2CasVEIPQHTp5JE4Y-5">
                    <mxGeometry x="135" y="10.625" width="230" height="31.875" as="geometry"/>
                </mxCell>
                <mxCell id="hDm2CasVEIPQHTp5JE4Y-8" value="" style="rounded=1;whiteSpace=wrap;html=1;fillColor=default;arcSize=2;strokeColor=#1A1A1A;strokeWidth=3;" vertex="1" parent="1">
                    <mxGeometry x="575" y="540" width="850" height="284" as="geometry"/>
                </mxCell>
                <mxCell id="hDm2CasVEIPQHTp5JE4Y-9" style="edgeStyle=none;html=1;exitX=0.75;exitY=0;exitDx=0;exitDy=0;strokeWidth=2;fillColor=#1ba1e2;strokeColor=#006EAF;entryX=0;entryY=0.5;entryDx=0;entryDy=0;" edge="1" parent="1" source="hDm2CasVEIPQHTp5JE4Y-12" target="hDm2CasVEIPQHTp5JE4Y-16">
                    <mxGeometry relative="1" as="geometry">
                        <mxPoint x="1260" y="505" as="sourcePoint"/>
                        <mxPoint x="1470" y="460" as="targetPoint"/>
                        <Array as="points">
                            <mxPoint x="1278" y="445"/>
                        </Array>
                    </mxGeometry>
                </mxCell>
                <mxCell id="hDm2CasVEIPQHTp5JE4Y-10" style="edgeStyle=none;html=1;entryX=0.5;entryY=0;entryDx=0;entryDy=0;endArrow=classic;endFill=1;strokeWidth=2;fillColor=#e51400;strokeColor=#B20000;" edge="1" parent="1" source="hDm2CasVEIPQHTp5JE4Y-12" target="hDm2CasVEIPQHTp5JE4Y-21">
                    <mxGeometry relative="1" as="geometry">
                        <Array as="points">
                            <mxPoint x="1150" y="579"/>
                        </Array>
                    </mxGeometry>
                </mxCell>
                <mxCell id="hDm2CasVEIPQHTp5JE4Y-11" style="edgeStyle=none;html=1;entryX=0;entryY=0.5;entryDx=0;entryDy=0;endArrow=classic;endFill=1;strokeWidth=2;fillColor=#1ba1e2;strokeColor=#006EAF;" edge="1" parent="1" target="hDm2CasVEIPQHTp5JE4Y-23">
                    <mxGeometry relative="1" as="geometry">
                        <mxPoint x="1275" y="594" as="sourcePoint"/>
                        <Array as="points">
                            <mxPoint x="1275" y="649"/>
                        </Array>
                    </mxGeometry>
                </mxCell>
                <mxCell id="hDm2CasVEIPQHTp5JE4Y-12" value="&lt;font style=&quot;font-size: 15px&quot;&gt;&lt;b style=&quot;font-size: 12px&quot;&gt;socket&lt;br&gt;&lt;/b&gt;&lt;/font&gt;" style="rounded=1;whiteSpace=wrap;html=1;fillColor=none;arcSize=2;strokeColor=default;strokeWidth=3;" vertex="1" parent="1">
                    <mxGeometry x="1225" y="564" width="70" height="30" as="geometry"/>
                </mxCell>
                <mxCell id="hDm2CasVEIPQHTp5JE4Y-13" style="edgeStyle=none;html=1;entryX=0.25;entryY=0;entryDx=0;entryDy=0;exitX=1;exitY=0.5;exitDx=0;exitDy=0;strokeWidth=2;fillColor=#e51400;strokeColor=#B20000;" edge="1" parent="1" source="hDm2CasVEIPQHTp5JE4Y-14" target="hDm2CasVEIPQHTp5JE4Y-12">
                    <mxGeometry relative="1" as="geometry">
                        <Array as="points">
                            <mxPoint x="1243" y="445"/>
                        </Array>
                    </mxGeometry>
                </mxCell>
                <mxCell id="hDm2CasVEIPQHTp5JE4Y-14" value="&lt;font style=&quot;font-size: 15px&quot;&gt;&lt;b style=&quot;font-size: 12px&quot;&gt;request&lt;br&gt;&lt;/b&gt;&lt;/font&gt;" style="rounded=1;whiteSpace=wrap;html=1;fillColor=none;arcSize=2;strokeColor=default;strokeWidth=3;fontColor=default;" vertex="1" parent="1">
                    <mxGeometry x="1120" y="430" width="70" height="30" as="geometry"/>
                </mxCell>
                <mxCell id="hDm2CasVEIPQHTp5JE4Y-15" style="edgeStyle=none;html=1;entryX=0.5;entryY=0;entryDx=0;entryDy=0;dashed=1;endArrow=classic;endFill=1;strokeWidth=1;exitX=0.5;exitY=0;exitDx=0;exitDy=0;" edge="1" parent="1" source="hDm2CasVEIPQHTp5JE4Y-14" target="hDm2CasVEIPQHTp5JE4Y-16">
                    <mxGeometry relative="1" as="geometry">
                        <Array as="points">
                            <mxPoint x="1155" y="410"/>
                            <mxPoint x="1265" y="410"/>
                            <mxPoint x="1370" y="410"/>
                        </Array>
                    </mxGeometry>
                </mxCell>
                <mxCell id="hDm2CasVEIPQHTp5JE4Y-16" value="&lt;font style=&quot;font-size: 15px&quot;&gt;&lt;b style=&quot;font-size: 12px&quot;&gt;reponse&lt;br&gt;&lt;/b&gt;&lt;/font&gt;" style="rounded=1;whiteSpace=wrap;html=1;fillColor=none;arcSize=2;strokeColor=default;strokeWidth=3;fontColor=default;" vertex="1" parent="1">
                    <mxGeometry x="1335" y="430" width="70" height="30" as="geometry"/>
                </mxCell>
                <mxCell id="hDm2CasVEIPQHTp5JE4Y-17" style="edgeStyle=none;html=1;entryX=0.5;entryY=1;entryDx=0;entryDy=0;endArrow=classic;endFill=1;strokeWidth=2;exitX=1;exitY=0.75;exitDx=0;exitDy=0;dashed=1;fillColor=#1ba1e2;strokeColor=#006EAF;" edge="1" parent="1" source="hDm2CasVEIPQHTp5JE4Y-18" target="hDm2CasVEIPQHTp5JE4Y-23">
                    <mxGeometry relative="1" as="geometry">
                        <mxPoint x="1145" y="824" as="sourcePoint"/>
                        <Array as="points">
                            <mxPoint x="1370" y="779"/>
                        </Array>
                    </mxGeometry>
                </mxCell>
                <mxCell id="hDm2CasVEIPQHTp5JE4Y-18" value="storage" style="swimlane;horizontal=0;fontSize=12;fontColor=#F7F7F7;strokeColor=default;strokeWidth=3;fillColor=#000000;whiteSpace=wrap;html=1;" vertex="1" parent="1">
                    <mxGeometry x="945" y="704" width="110" height="100" as="geometry"/>
                </mxCell>
                <mxCell id="hDm2CasVEIPQHTp5JE4Y-19" style="edgeStyle=none;html=1;entryX=0.25;entryY=1;entryDx=0;entryDy=0;endArrow=classic;endFill=1;strokeWidth=2;exitX=1;exitY=0.5;exitDx=0;exitDy=0;fillColor=#e51400;strokeColor=#B20000;" edge="1" parent="1" source="hDm2CasVEIPQHTp5JE4Y-21" target="hDm2CasVEIPQHTp5JE4Y-12">
                    <mxGeometry relative="1" as="geometry">
                        <Array as="points">
                            <mxPoint x="1243" y="649"/>
                        </Array>
                    </mxGeometry>
                </mxCell>
                <mxCell id="hDm2CasVEIPQHTp5JE4Y-20" style="edgeStyle=none;html=1;entryX=1;entryY=0.25;entryDx=0;entryDy=0;endArrow=classic;endFill=1;strokeWidth=2;exitX=0.5;exitY=1;exitDx=0;exitDy=0;dashed=1;fillColor=#e51400;strokeColor=#B20000;" edge="1" parent="1" source="hDm2CasVEIPQHTp5JE4Y-21" target="hDm2CasVEIPQHTp5JE4Y-18">
                    <mxGeometry relative="1" as="geometry">
                        <Array as="points">
                            <mxPoint x="1150" y="729"/>
                        </Array>
                    </mxGeometry>
                </mxCell>
                <mxCell id="hDm2CasVEIPQHTp5JE4Y-21" value="&lt;font style=&quot;font-size: 15px&quot;&gt;&lt;b style=&quot;font-size: 12px&quot;&gt;enque&lt;br&gt;request&lt;br&gt;&lt;/b&gt;&lt;/font&gt;" style="rounded=1;whiteSpace=wrap;html=1;fillColor=none;arcSize=2;strokeColor=default;strokeWidth=3;fontColor=default;" vertex="1" parent="1">
                    <mxGeometry x="1115" y="624" width="70" height="50" as="geometry"/>
                </mxCell>
                <mxCell id="hDm2CasVEIPQHTp5JE4Y-22" style="edgeStyle=none;html=1;entryX=1;entryY=0.5;entryDx=0;entryDy=0;endArrow=classic;endFill=1;strokeWidth=2;exitX=0.5;exitY=0;exitDx=0;exitDy=0;fillColor=#1ba1e2;strokeColor=#006EAF;" edge="1" parent="1" source="hDm2CasVEIPQHTp5JE4Y-23" target="hDm2CasVEIPQHTp5JE4Y-12">
                    <mxGeometry relative="1" as="geometry">
                        <Array as="points">
                            <mxPoint x="1370" y="579"/>
                        </Array>
                    </mxGeometry>
                </mxCell>
                <mxCell id="hDm2CasVEIPQHTp5JE4Y-23" value="&lt;font style=&quot;font-size: 15px&quot;&gt;&lt;b style=&quot;font-size: 12px&quot;&gt;deque&lt;br&gt;response&lt;br&gt;&lt;/b&gt;&lt;/font&gt;" style="rounded=1;whiteSpace=wrap;html=1;fillColor=none;arcSize=2;strokeColor=default;strokeWidth=3;fontColor=default;" vertex="1" parent="1">
                    <mxGeometry x="1335" y="624" width="70" height="50" as="geometry"/>
                </mxCell>
                <mxCell id="hDm2CasVEIPQHTp5JE4Y-24" style="edgeStyle=none;html=1;exitX=0.75;exitY=0;exitDx=0;exitDy=0;strokeWidth=2;fillColor=#e51400;strokeColor=#B20000;entryX=0;entryY=0.5;entryDx=0;entryDy=0;" edge="1" parent="1" source="hDm2CasVEIPQHTp5JE4Y-25" target="hDm2CasVEIPQHTp5JE4Y-28">
                    <mxGeometry relative="1" as="geometry">
                        <mxPoint x="740" y="505" as="sourcePoint"/>
                        <mxPoint x="950" y="460" as="targetPoint"/>
                        <Array as="points">
                            <mxPoint x="758" y="445"/>
                        </Array>
                    </mxGeometry>
                </mxCell>
                <mxCell id="hDm2CasVEIPQHTp5JE4Y-25" value="&lt;font style=&quot;font-size: 15px&quot;&gt;&lt;b style=&quot;font-size: 12px&quot;&gt;stdio&lt;br&gt;&lt;/b&gt;&lt;/font&gt;" style="rounded=1;whiteSpace=wrap;html=1;fillColor=none;arcSize=2;strokeColor=default;strokeWidth=3;" vertex="1" parent="1">
                    <mxGeometry x="705" y="564" width="70" height="30" as="geometry"/>
                </mxCell>
                <mxCell id="hDm2CasVEIPQHTp5JE4Y-26" style="edgeStyle=none;html=1;entryX=0.25;entryY=0;entryDx=0;entryDy=0;exitX=1;exitY=0.5;exitDx=0;exitDy=0;strokeWidth=2;fillColor=#e51400;strokeColor=#B20000;" edge="1" parent="1" source="hDm2CasVEIPQHTp5JE4Y-27" target="hDm2CasVEIPQHTp5JE4Y-25">
                    <mxGeometry relative="1" as="geometry">
                        <Array as="points">
                            <mxPoint x="723" y="445"/>
                        </Array>
                    </mxGeometry>
                </mxCell>
                <mxCell id="hDm2CasVEIPQHTp5JE4Y-27" value="&lt;font style=&quot;font-size: 15px&quot;&gt;&lt;b style=&quot;font-size: 12px&quot;&gt;response&lt;br&gt;&lt;/b&gt;&lt;/font&gt;" style="rounded=1;whiteSpace=wrap;html=1;fillColor=none;arcSize=2;strokeColor=default;strokeWidth=3;fontColor=default;" vertex="1" parent="1">
                    <mxGeometry x="600" y="430" width="70" height="30" as="geometry"/>
                </mxCell>
                <mxCell id="hDm2CasVEIPQHTp5JE4Y-28" value="&lt;font style=&quot;font-size: 15px&quot;&gt;&lt;b style=&quot;font-size: 12px&quot;&gt;request&lt;br&gt;&lt;/b&gt;&lt;/font&gt;" style="rounded=1;whiteSpace=wrap;html=1;fillColor=none;arcSize=2;strokeColor=default;strokeWidth=3;fontColor=default;" vertex="1" parent="1">
                    <mxGeometry x="815" y="430" width="70" height="30" as="geometry"/>
                </mxCell>
                <mxCell id="hDm2CasVEIPQHTp5JE4Y-29" value="&lt;font style=&quot;font-size: 15px&quot;&gt;&lt;b style=&quot;font-size: 12px&quot;&gt;enque&lt;br&gt;response&lt;br&gt;&lt;/b&gt;&lt;/font&gt;" style="rounded=1;whiteSpace=wrap;html=1;fillColor=none;arcSize=2;strokeColor=default;strokeWidth=3;fontColor=default;" vertex="1" parent="1">
                    <mxGeometry x="595" y="624" width="70" height="50" as="geometry"/>
                </mxCell>
                <mxCell id="hDm2CasVEIPQHTp5JE4Y-30" value="&lt;font style=&quot;font-size: 15px&quot;&gt;&lt;b style=&quot;font-size: 12px&quot;&gt;deque&lt;br&gt;request&lt;br&gt;&lt;/b&gt;&lt;/font&gt;" style="rounded=1;whiteSpace=wrap;html=1;fillColor=none;arcSize=2;strokeColor=default;strokeWidth=3;fontColor=default;" vertex="1" parent="1">
                    <mxGeometry x="815" y="624" width="70" height="50" as="geometry"/>
                </mxCell>
                <mxCell id="hDm2CasVEIPQHTp5JE4Y-31" style="edgeStyle=none;html=1;entryX=0.5;entryY=0;entryDx=0;entryDy=0;dashed=1;endArrow=classic;endFill=1;strokeWidth=1;exitX=0.5;exitY=0;exitDx=0;exitDy=0;" edge="1" parent="1" source="hDm2CasVEIPQHTp5JE4Y-28" target="hDm2CasVEIPQHTp5JE4Y-27">
                    <mxGeometry relative="1" as="geometry">
                        <mxPoint x="785" y="410" as="sourcePoint"/>
                        <mxPoint x="1000" y="410" as="targetPoint"/>
                        <Array as="points">
                            <mxPoint x="850" y="410"/>
                            <mxPoint x="635" y="410"/>
                        </Array>
                    </mxGeometry>
                </mxCell>
                <mxCell id="hDm2CasVEIPQHTp5JE4Y-32" style="edgeStyle=none;html=1;endArrow=classic;endFill=1;strokeWidth=2;exitX=0.5;exitY=1;exitDx=0;exitDy=0;entryX=0;entryY=0.25;entryDx=0;entryDy=0;" edge="1" parent="1" source="hDm2CasVEIPQHTp5JE4Y-4" target="hDm2CasVEIPQHTp5JE4Y-29">
                    <mxGeometry relative="1" as="geometry">
                        <mxPoint x="485" y="590" as="targetPoint"/>
                        <Array as="points">
                            <mxPoint x="550" y="520"/>
                            <mxPoint x="550" y="637"/>
                        </Array>
                    </mxGeometry>
                </mxCell>
                <mxCell id="hDm2CasVEIPQHTp5JE4Y-33" style="edgeStyle=none;html=1;entryX=0.5;entryY=0;entryDx=0;entryDy=0;endArrow=classic;endFill=1;strokeWidth=2;fillColor=#e51400;strokeColor=#B20000;" edge="1" parent="1" source="hDm2CasVEIPQHTp5JE4Y-25" target="hDm2CasVEIPQHTp5JE4Y-29">
                    <mxGeometry relative="1" as="geometry">
                        <Array as="points">
                            <mxPoint x="630" y="579"/>
                        </Array>
                    </mxGeometry>
                </mxCell>
                <mxCell id="hDm2CasVEIPQHTp5JE4Y-34" style="edgeStyle=none;html=1;entryX=0;entryY=0.5;entryDx=0;entryDy=0;endArrow=classic;endFill=1;strokeWidth=2;fillColor=#e51400;strokeColor=#B20000;" edge="1" parent="1" target="hDm2CasVEIPQHTp5JE4Y-30">
                    <mxGeometry relative="1" as="geometry">
                        <mxPoint x="755.0000000000002" y="594" as="sourcePoint"/>
                        <Array as="points">
                            <mxPoint x="755" y="649"/>
                        </Array>
                    </mxGeometry>
                </mxCell>
                <mxCell id="hDm2CasVEIPQHTp5JE4Y-35" style="edgeStyle=none;html=1;entryX=0.25;entryY=1;entryDx=0;entryDy=0;endArrow=classic;endFill=1;strokeWidth=2;exitX=1;exitY=0.5;exitDx=0;exitDy=0;fillColor=#1ba1e2;strokeColor=#006EAF;" edge="1" parent="1" source="hDm2CasVEIPQHTp5JE4Y-29" target="hDm2CasVEIPQHTp5JE4Y-25">
                    <mxGeometry relative="1" as="geometry">
                        <Array as="points">
                            <mxPoint x="723" y="649"/>
                        </Array>
                    </mxGeometry>
                </mxCell>
                <mxCell id="hDm2CasVEIPQHTp5JE4Y-36" style="edgeStyle=none;html=1;entryX=1;entryY=0.5;entryDx=0;entryDy=0;endArrow=classic;endFill=1;strokeWidth=2;exitX=0.5;exitY=0;exitDx=0;exitDy=0;fillColor=#e51400;strokeColor=#B20000;" edge="1" parent="1" source="hDm2CasVEIPQHTp5JE4Y-30" target="hDm2CasVEIPQHTp5JE4Y-25">
                    <mxGeometry relative="1" as="geometry">
                        <Array as="points">
                            <mxPoint x="850" y="579"/>
                        </Array>
                    </mxGeometry>
                </mxCell>
                <mxCell id="hDm2CasVEIPQHTp5JE4Y-37" style="edgeStyle=none;html=1;exitX=0;exitY=0.25;exitDx=0;exitDy=0;entryX=0.5;entryY=1;entryDx=0;entryDy=0;dashed=1;endArrow=classic;endFill=1;strokeWidth=2;fillColor=#e51400;strokeColor=#B20000;" edge="1" parent="1" source="hDm2CasVEIPQHTp5JE4Y-18" target="hDm2CasVEIPQHTp5JE4Y-30">
                    <mxGeometry relative="1" as="geometry">
                        <Array as="points">
                            <mxPoint x="850" y="729"/>
                        </Array>
                    </mxGeometry>
                </mxCell>
                <mxCell id="hDm2CasVEIPQHTp5JE4Y-38" style="edgeStyle=none;html=1;entryX=0;entryY=0.75;entryDx=0;entryDy=0;dashed=1;endArrow=classic;endFill=1;strokeWidth=2;exitX=0.5;exitY=1;exitDx=0;exitDy=0;fillColor=#1ba1e2;strokeColor=#006EAF;" edge="1" parent="1" source="hDm2CasVEIPQHTp5JE4Y-29" target="hDm2CasVEIPQHTp5JE4Y-18">
                    <mxGeometry relative="1" as="geometry">
                        <Array as="points">
                            <mxPoint x="630" y="779"/>
                        </Array>
                    </mxGeometry>
                </mxCell>
                <mxCell id="hDm2CasVEIPQHTp5JE4Y-39" value="being watched" style="text;html=1;strokeColor=none;fillColor=none;align=center;verticalAlign=middle;whiteSpace=wrap;rounded=0;fontStyle=1" vertex="1" parent="1">
                    <mxGeometry x="635" y="674" width="100" height="30" as="geometry"/>
                </mxCell>
                <mxCell id="hDm2CasVEIPQHTp5JE4Y-40" value="being watched" style="text;html=1;strokeColor=none;fillColor=none;align=center;verticalAlign=middle;whiteSpace=wrap;rounded=0;fontStyle=1" vertex="1" parent="1">
                    <mxGeometry x="1045" y="590" width="100" height="30" as="geometry"/>
                </mxCell>
                <mxCell id="hDm2CasVEIPQHTp5JE4Y-41" style="edgeStyle=none;html=1;entryX=0.25;entryY=0;entryDx=0;entryDy=0;exitX=1;exitY=0.5;exitDx=0;exitDy=0;strokeWidth=2;fillColor=#1ba1e2;strokeColor=#006EAF;" edge="1" parent="1">
                    <mxGeometry relative="1" as="geometry">
                        <Array as="points">
                            <mxPoint x="723" y="445"/>
                        </Array>
                        <mxPoint x="670" y="445" as="sourcePoint"/>
                        <mxPoint x="722.5" y="564" as="targetPoint"/>
                    </mxGeometry>
                </mxCell>
                <mxCell id="hDm2CasVEIPQHTp5JE4Y-42" style="edgeStyle=none;html=1;entryX=0.5;entryY=0;entryDx=0;entryDy=0;endArrow=classic;endFill=1;strokeWidth=2;fillColor=#1ba1e2;strokeColor=#006EAF;" edge="1" parent="1">
                    <mxGeometry relative="1" as="geometry">
                        <Array as="points">
                            <mxPoint x="630" y="579"/>
                        </Array>
                        <mxPoint x="705" y="579" as="sourcePoint"/>
                        <mxPoint x="630" y="624" as="targetPoint"/>
                    </mxGeometry>
                </mxCell>
            </root>
        </mxGraphModel>
    </diagram>
</mxfile>